<svg width="25" height="25" viewBox="0 0 25 25" fill="none" xmlns="http://www.w3.org/2000/svg">
<g clip-path="url(#clip0_1_29)">
<path d="M11.834 4.71876L11.4722 5.35353C10.9387 5.05035 10.3507 4.85524 9.74182 4.77933C9.13293 4.70342 8.51505 4.7482 7.92346 4.91112C7.33188 5.07404 6.77818 5.35189 6.29399 5.72882C5.80981 6.10575 5.40462 6.57437 5.10156 7.10792L4.4668 6.74659C5.17516 5.50107 6.34911 4.5878 7.73059 4.20754C9.11208 3.82729 10.588 4.01117 11.834 4.71876Z" fill="#333333"/>
<path d="M15.7402 2.85157C12.415 -0.712887 6.80908 -0.908199 3.24414 2.41651C1.55586 3.99517 0.552882 6.17218 0.450022 8.48127C0.347162 10.7904 1.1526 13.0479 2.69383 14.7705C4.23505 16.493 6.38952 17.5435 8.6958 17.697C11.0021 17.8505 13.2768 17.0948 15.0327 15.5918C15.1252 15.5127 15.2161 15.4313 15.3057 15.3477C15.3955 15.2642 15.4829 15.1787 15.5684 15.0923C17.1707 13.4683 18.0833 11.2877 18.1153 9.00648C18.1474 6.72526 17.2964 4.51995 15.7402 2.85157ZM16.4595 9.13575C16.3948 10.9968 15.6105 12.7601 14.2716 14.0543C12.9328 15.3485 11.1439 16.0727 9.28174 16.0742C9.19678 16.0742 9.11133 16.0728 9.02539 16.0698C8.08157 16.0395 7.15314 15.8223 6.2938 15.4308C5.43447 15.0393 4.66131 14.4813 4.01904 13.7891C1.31543 10.8887 1.47412 6.33301 4.37256 3.6294C5.41215 2.65956 6.716 2.0198 8.11921 1.79102C9.52243 1.56225 10.962 1.75474 12.2558 2.34415C13.5496 2.93356 14.6395 3.89341 15.3878 5.10231C16.1361 6.31122 16.509 7.71487 16.4595 9.13575Z" fill="#333333"/>
<path d="M11.834 4.71876L11.4722 5.35353C10.9387 5.05035 10.3507 4.85524 9.74182 4.77933C9.13293 4.70342 8.51505 4.7482 7.92346 4.91112C7.33188 5.07404 6.77818 5.35189 6.29399 5.72882C5.80981 6.10575 5.40462 6.57437 5.10156 7.10792L4.4668 6.74659C5.17516 5.50107 6.34911 4.5878 7.73059 4.20754C9.11208 3.82729 10.588 4.01117 11.834 4.71876Z" fill="#333333"/>
<path d="M24.1636 22.2266L18.1514 16.0117L15.7588 18.2446L21.772 24.4629C21.9182 24.6198 22.094 24.7462 22.2892 24.8348C22.4845 24.9235 22.6953 24.9727 22.9097 24.9795H22.9678C23.2865 24.9791 23.5982 24.8857 23.8646 24.7107C24.131 24.5358 24.3406 24.2868 24.4676 23.9945C24.5945 23.7021 24.6334 23.379 24.5794 23.0649C24.5254 22.7508 24.3809 22.4593 24.1636 22.2261V22.2266Z" fill="#333333"/>
<path d="M15.3234 14.8291L14.7879 15.3287L16.9425 17.6384L17.4781 17.1388L15.3234 14.8291Z" fill="#333333"/>
<path d="M11.834 4.71876L11.4722 5.35353C10.9387 5.05035 10.3507 4.85524 9.74182 4.77933C9.13293 4.70342 8.51505 4.7482 7.92346 4.91112C7.33188 5.07404 6.77818 5.35189 6.29399 5.72882C5.80981 6.10575 5.40462 6.57437 5.10156 7.10792L4.4668 6.74659C5.17516 5.50107 6.34911 4.5878 7.73059 4.20754C9.11208 3.82729 10.588 4.01117 11.834 4.71876Z" fill="#333333"/>
</g>
<defs>
<clipPath id="clip0_1_29">
<rect width="25" height="25" fill="white"/>
</clipPath>
</defs>
</svg>
